<svg id="visual" viewBox="0 0 900 300" width="900" height="300" xmlns="http://www.w3.org/2000/svg" xmlns:xlink="http://www.w3.org/1999/xlink" version="1.1"><rect x="0" y="0" width="900" height="300" fill="#692757"></rect><path d="M0 258L21.5 252.2C43 246.3 86 234.7 128.8 226.8C171.7 219 214.3 215 257.2 215.7C300 216.3 343 221.7 385.8 228.2C428.7 234.7 471.3 242.3 514.2 248C557 253.7 600 257.3 642.8 250.2C685.7 243 728.3 225 771.2 219C814 213 857 219 878.5 222L900 225L900 301L878.5 301C857 301 814 301 771.2 301C728.3 301 685.7 301 642.8 301C600 301 557 301 514.2 301C471.3 301 428.7 301 385.8 301C343 301 300 301 257.2 301C214.3 301 171.7 301 128.8 301C86 301 43 301 21.5 301L0 301Z" fill="#151129" stroke-linecap="round" stroke-linejoin="miter"></path></svg>