<svg id="visual" viewBox="0 0 900 300" width="900" height="300" xmlns="http://www.w3.org/2000/svg" xmlns:xlink="http://www.w3.org/1999/xlink" version="1.1"><rect x="0" y="0" width="900" height="300" fill="#12284C"></rect><path d="M0 253L21.5 242.7C43 232.3 86 211.7 128.8 205.2C171.7 198.7 214.3 206.3 257.2 215.3C300 224.3 343 234.7 385.8 233C428.7 231.3 471.3 217.7 514.2 209.5C557 201.3 600 198.7 642.8 205.2C685.7 211.7 728.3 227.3 771.2 234.2C814 241 857 239 878.5 238L900 237L900 301L878.5 301C857 301 814 301 771.2 301C728.3 301 685.7 301 642.8 301C600 301 557 301 514.2 301C471.3 301 428.7 301 385.8 301C343 301 300 301 257.2 301C214.3 301 171.7 301 128.8 301C86 301 43 301 21.5 301L0 301Z" fill="#692757" stroke-linecap="round" stroke-linejoin="miter"></path></svg>